<svg xmlns="http://www.w3.org/2000/svg" xmlns:xlink="http://www.w3.org/1999/xlink" version="1.1" x="0px" y="0px" viewBox="0 0 100 125" enable-background="new 0 0 100 100" xml:space="preserve"><path d="M80.541,13.654c-1.645,1.646-1.645,4.321,0,5.967c0.823,0.822,1.903,1.233,2.983,1.233c1.081,0,2.161-0.411,2.983-1.233  c0.797-0.797,1.236-1.856,1.236-2.983s-0.439-2.187-1.236-2.983C84.864,12.011,82.187,12.01,80.541,13.654z M85.8,18.914  c-1.254,1.255-3.296,1.255-4.553,0c-1.255-1.255-1.255-3.298,0-4.553c0.628-0.628,1.452-0.941,2.276-0.941s1.649,0.314,2.276,0.941  c0.608,0.608,0.943,1.416,0.943,2.276S86.408,18.306,85.8,18.914z"/><path d="M89.614,10.548c-3.357-3.357-8.821-3.357-12.18,0c-2.406,2.406-3.078,5.89-2.037,8.909l-19.67,19.67l-12.455,3.217  L8.733,91.44l48.795-34.328l0.307-0.217l2.99-12.23L80.721,24.77c0.907,0.311,1.854,0.476,2.803,0.476  c2.206,0,4.411-0.84,6.09-2.519C92.972,19.369,92.972,13.906,89.614,10.548z M63.475,36.687c-0.43-0.429-0.925-0.765-1.461-1.018  l1.756-1.756c0.565,0.208,1.083,0.527,1.517,0.962c0.439,0.439,0.761,0.962,0.968,1.533L64.5,38.163  C64.246,37.621,63.908,37.12,63.475,36.687z M63.736,38.927l-1.755,1.755c-0.254-0.542-0.592-1.043-1.025-1.476  c-0.429-0.429-0.925-0.766-1.461-1.019l1.756-1.756c0.564,0.208,1.082,0.527,1.517,0.962C63.207,37.833,63.528,38.356,63.736,38.927  z M65.993,34.168c-0.429-0.429-0.925-0.765-1.461-1.018l1.756-1.756c0.565,0.208,1.083,0.527,1.518,0.962  c0.439,0.439,0.76,0.962,0.968,1.533l-1.755,1.755C66.765,35.102,66.427,34.601,65.993,34.168z M68.512,31.649  c-0.429-0.429-0.925-0.765-1.461-1.018l1.755-1.755c0.565,0.208,1.083,0.528,1.518,0.962c0.439,0.439,0.761,0.962,0.968,1.533  l-1.755,1.755C69.284,32.584,68.945,32.083,68.512,31.649z M71.031,29.131c-0.429-0.429-0.925-0.765-1.461-1.018l1.756-1.756  c0.565,0.208,1.082,0.527,1.517,0.963c0.439,0.439,0.761,0.962,0.969,1.533l-1.755,1.755C71.802,30.065,71.464,29.564,71.031,29.131  z M73.549,26.612c-0.429-0.429-0.925-0.766-1.461-1.019l1.756-1.756c0.565,0.208,1.082,0.527,1.517,0.963  c0.439,0.439,0.761,0.961,0.968,1.533l-1.755,1.755C74.321,27.547,73.983,27.046,73.549,26.612z M58.732,38.951  c0.565,0.208,1.082,0.527,1.517,0.963c0.439,0.439,0.761,0.961,0.968,1.533l-1.071,1.071l-2.49-2.49L58.732,38.951z M48.079,52.801  l7.345,3.346L19.366,81.514L48.079,52.801z M57.133,42.332l-9.007,9.006l-3.336-7.322l11.147-2.88L57.133,42.332z M44.026,44.749  l3.346,7.345l-0.416,0.416l0,0l-28.3,28.3L44.026,44.749z M56.147,55.377l-7.314-3.332l9.007-9.006l1.064,1.064L56.147,55.377z   M77.093,25.57c-0.253-0.542-0.592-1.043-1.025-1.476c-0.429-0.429-0.925-0.766-1.461-1.019l1.715-1.715  c0.317,0.484,0.687,0.943,1.112,1.367c0.429,0.429,0.893,0.801,1.381,1.12L77.093,25.57z M88.2,21.313  c-2.578,2.578-6.773,2.578-9.352,0s-2.578-6.773,0-9.352c1.29-1.289,2.982-1.934,4.676-1.934s3.387,0.645,4.676,1.934  C90.778,14.54,90.778,18.735,88.2,21.313z"/><text x="0" y="115" fill="#000000" font-size="5px" font-weight="bold" font-family="'Helvetica Neue', Helvetica, Arial-Unicode, Arial, Sans-serif">
Created by Juan Pablo Pérez Beltrán</text><text x="0" y="120" fill="#000000" font-size="5px" font-weight="bold" font-family="'Helvetica Neue', Helvetica, Arial-Unicode, Arial, Sans-serif">from the Noun Project</text></svg>