 <svg height="2000" width="5000" version="1.1" xmlns="http://www.w3.org/2000/svg">
        <!-- feild A -->
        <polygon points="100,100 166,100 166,190 91,190"
            style="fill:rgb(255, 201, 5); stroke:rgb(5, 101, 5); stroke-width: 4;" />
            <text x="133" y="145" fill="white" > A</text>
            <text x="110" y="110" fill="white" font-size="15" >66</text>
            <text x="140" y="40" fill="white" font-size="15" transform="rotate(90 100,90)">90</text>
            <text x="101" y="185" fill="white" font-size="15" >75</text>
            <text x="140" y="90" fill="white" font-size="15" transform="rotate(90 100,90)">88</text>
        <!-- feild B -->
        <polygon points="166,100 238,100 238,193 169,193"
            style="fill:rgb(255, 4, 255); stroke:rgb(5, 101, 5); stroke-width: 4;" />
            <text x="202" y="146.5" fill="white"> B</text>
            <text x="190" y="110" fill="white" font-size="15" >71</text>
            <text x="170" y="1" fill="white" font-size="15" transform="rotate(90 135,90)">93</text>
            <text x="190" y="190" fill="white" font-size="15">69</text>
            <text x="140" y="15" fill="white" font-size="15" transform="rotate(90 100,90)">93</text>
        <!-- feild C -->
        <polygon points="165,190 238,193 238,278 165,276"
            style="fill:rgb(22, 248, 248); stroke:rgb(5, 101, 5); stroke-width: 4;" />
            <text x="203.5" y="235.5" fill="white"> C</text>
            <text x="190" y="205" fill="white" font-size="15">69</text>
            <text x="370" y="110" fill="white" font-size="15" transform="rotate(90 240,90)">85</text>
            <text x="190" y="270" fill="white" font-size="15" >66</text>
            <text x="330" y="110" fill="white" font-size="15" transform="rotate(90 190,90)">86</text>
        <!-- feild D -->
        <polygon points="91,190 163,190 163,276 70,276"
            style="fill:rgb(253, 6, 23); stroke:rgb(5, 101, 5); stroke-width: 4;" />
            <text x="116.5" y="233" fill="white"> D</text>
            <text x="100" y="200" fill="white" font-size="15" >72</text>
            <text x="290" y="110" fill="white" font-size="15" transform="rotate(90 170,90)">86</text>
            <text x="100" y="270" fill="white" font-size="15" >93</text>
            <text x="240" y="110" fill="white" font-size="15" transform="rotate(90 110,90)">92</text>
        <!-- feild E -->
        <polygon points="39,276 134,276 134,399 31,399"
            style="fill:rgb(250, 3, 246); stroke:rgb(5, 101, 5); stroke-width: 4;" />
            <text x="81" y="337.5" fill="white"> E</text>
            <text x="90" y="290" fill="white" font-size="15">84</text>
            <text x="280" y="110" fill="white" font-size="15" transform="rotate(90 60,90)">131</text>
            <text x="90" y="390" fill="white" font-size="15" >84</text>
            <text x="360" y="110" fill="white" font-size="15" transform="rotate(90 140,90)">128</text>
        <!-- feild F -->
        <polygon points="134,276 240,276 240,399 134,399"
            style="fill:rgb(242, 242, 12); stroke: rgb(5, 101, 5); stroke-width: 4;" />
            <text x="176" y="337.5" fill="white"> F</text>
            <text x="160" y="290" fill="white" font-size="15">105</text>
            <text x="450" y="110" fill="white" font-size="15" transform="rotate(90 230,90)">136</text>
            <text x="160" y="390" fill="white" font-size="15" >105</text>
            <text x="400" y="110" fill="white" font-size="15" transform="rotate(90 160,90)">126</text>
        <!-- feild G -->
        <polygon points=" 238,100 320,100 320,278  238,278"
            style="fill:rgb(251, 83, 57); stroke: rgb(5, 101, 5); stroke-width: 4;" />
            <text x="279" y="189" fill="white"> G</text>
            <text x="250" y="110" fill="white" font-size="15">77</text>
            <text x="340" y="110" fill="white" font-size="15" transform="rotate(90 260,90)">180</text>
            <text x="250" y="270" fill="white" font-size="15">77</text>
            <text x="380" y="110" fill="white" font-size="15" transform="rotate(90 330,90)">180</text>
        <!-- feild H -->
        <polygon points=" 320,100 402,100 402,278  320,278"
            style="fill:rgb(5, 127, 248); stroke: rgb(5, 101, 5); stroke-width: 4;" />
            <text x="359" y="189" fill="white"> H</text>
            <text x="340" y="110" fill="white" font-size="15">62</text>
            <text x="470" y="110" fill="white" font-size="15" transform="rotate(90 410,90)">180</text>
            <text x="340" y="270" fill="white" font-size="15">62</text>
        <!-- feild I -->
        <polygon points=" 229,278 402,278 402,399 229,399"
            style="fill:rgb(182, 52, 5); stroke: rgb(5, 101, 5); stroke-width: 4;" />
            <text x="315.5" y="338.5" fill="white"> I</text>
            <text x="310" y="290" fill="white" font-size="15">139</text>
            <text x="470" y="110" fill="white" font-size="15" transform="rotate(90 250,90)">136</text>
            <text x="320" y="390" fill="white" font-size="15">139</text>
            <text x="640" y="110" fill="white" font-size="15" transform="rotate(90 410,90)">136</text>
        <!-- feild J -->
        <polygon points=" 229,399 320,399 320,489 229,489"
            style="fill:rgb(253, 100, 6); stroke: rgb(5, 101, 5); stroke-width: 4;" />
            <text x="280.5" y="444" fill="white"> J</text>
            <text x="260" y="410" fill="white" font-size="15" >88</text>
            <text x="660" y="105" fill="white" font-size="15" transform="rotate(90 320,90)">90</text>
            <text x="250" y="480" fill="white" font-size="15" >88</text>
            <text x="600" y="110" fill="white" font-size="15" transform="rotate(90 250,90)">90</text>
        <!-- feild K -->
        <polygon points=" 320,399 402,399 402,489 320,489"
            style="fill:rgb(107, 74, 251); stroke: rgb(5, 101, 5); stroke-width: 4;" />
            <text x="361" y="444" fill="white"> K</text>
            <text x="350" y="410" fill="white" font-size="15">80</text>
            <text x="750" y="110" fill="white" font-size="15" transform="rotate(90 410,90)">90</text>
            <text x="350" y="480" fill="white" font-size="15">80</text>
            <text x="660" y="90" fill="white" font-size="15" transform="rotate(90 320,90)">90</text>
        <!-- feild l -->
        <polygon points=" 134,399 229,399 229,489 134,489"
            style="fill:rgb(189, 168, 252); stroke: rgb(5, 101, 5); stroke-width: 4;" />
            <text x="180" y="444" fill="white"> L</text>
            <text x="160" y="410" fill="white" font-size="15">93</text>
            <text x="590" y="130" fill="white" font-size="15" transform="rotate(90 250,90)">94</text>
            <text x="160" y="480" fill="white" font-size="15">93</text>
            <text x="490" y="110" fill="white" font-size="15" transform="rotate(90 160,90)">94</text>
        <!-- feild M -->
        <polygon points=" 31,399 134,399 134,489 31,489"
            style="fill:rgb(5, 253, 67); stroke: rgb(5, 101, 5); stroke-width: 4;" />
            <text x="82.5" y="444" fill="white"> M</text>
            <text x="50" y="410" fill="white" font-size="15" >84</text>
            <text x="490" y="130" fill="white" font-size="15" transform="rotate(90 160,90)">88</text>
            <text x="50" y="480" fill="white" font-size="15" >84</text>
            <text x="400" y="110" fill="white" font-size="15" transform="rotate(90 60,90)">84</text>
        <!-- feild N -->
        <polygon points=" 31,489 134,489 134,569 31,569"
            style="fill:rgb(109, 254, 123); stroke: rgb(5, 101, 5); stroke-width: 4;" />
            <text x="80" y="530" fill="white"> N</text>
            <text x="80" y="500" fill="white" font-size="15" >80</text>
            <text x="580" y="130" fill="white" font-size="15" transform="rotate(90 160,90)">92</text>
            <text x="80" y="560" fill="white" font-size="15" >73</text>
            <text x="480" y="110" fill="white" font-size="15" transform="rotate(90 60,90)">100</text>
        <!-- feild o -->
        <polygon points=" 134,489 229,489 229,569 134,569"
            style="fill:rgb(253, 6, 88); stroke: rgb(5, 101, 5); stroke-width: 4;" />
            <text x="184" y="530" fill="white"> O</text>
            <text x="160" y="500" fill="white" font-size="15">80</text>
            <text x="580" y="110" fill="white" font-size="15" transform="rotate(90 160,90)">92</text>
            <text x="160" y="560" fill="white" font-size="15">80</text>
            <text x="580" y="40" fill="white" font-size="15" transform="rotate(90 160,90)">90</text>
        <!-- feild p -->
        <polygon points=" 229,489 320,489 320,569 229,569"
            style="fill:rgb(251, 84, 173); stroke: rgb(5, 101, 5); stroke-width: 4;" />
            <text x="270" y="530" fill="white"> P</text>
            <text x="250" y="500" fill="white" font-size="15" >90</text>
            <text x="690" y="40" fill="white" font-size="15" transform="rotate(90 255,90)">90</text>
            <text x="250" y="560" fill="white" font-size="15" >90</text>
            <text x="580" y="20" fill="white" font-size="15" transform="rotate(90 160,90)">90</text>

    </svg>
